<svg width="165" height="36" viewBox="0 0 165 36" fill="none" xmlns="http://www.w3.org/2000/svg">
<path fill-rule="evenodd" clip-rule="evenodd" d="M78.4102 0C68.4445 0 60.4102 8.07296 60.4102 18C60.4102 27.9657 68.4831 36 78.4102 36C88.3758 36 96.4102 27.927 96.4102 18C96.4102 8.07296 88.3372 0 78.4102 0Z" fill="#C90C0F"/>
<path fill-rule="evenodd" clip-rule="evenodd" d="M85.209 25.6095L84.5909 26.7297C84.5523 26.8456 84.4751 26.8842 84.3205 26.8842C78.7197 25.764 73.4665 26.8842 71.5738 27.425C71.4193 27.4636 71.4193 27.425 71.342 27.3477L71.1875 26.9228C71.1875 26.8069 71.1875 26.7683 71.3034 26.7683C73.3506 25.7254 79.8012 24.4893 85.0158 25.4164C85.1703 25.3778 85.2476 25.455 85.209 25.6095Z" fill="white"/>
<path fill-rule="evenodd" clip-rule="evenodd" d="M87.7589 22.1719L87.1409 23.717C87.0637 23.8715 87.025 23.9487 86.8319 23.9101C79.4156 23.1762 72.7718 25.3393 70.3383 26.2663C70.1452 26.3049 70.1066 26.3049 70.0293 26.1891L69.7589 25.6869C69.6817 25.571 69.7203 25.4938 69.8362 25.4165C72.3469 23.7942 80.5744 21.3607 87.4499 21.8629C87.6431 21.9015 87.7976 21.9788 87.7589 22.1719Z" fill="white"/>
<path fill-rule="evenodd" clip-rule="evenodd" d="M87.4496 18.7724C87.2565 18.7724 87.0247 18.7724 86.8316 18.7724C86.3294 18.7724 86.0204 18.7724 85.7887 18.7724C85.3638 18.7724 85.132 19.0428 85.132 19.429C85.132 19.8539 85.132 19.8153 85.132 20.1629C85.132 20.2402 85.1707 20.5878 84.823 20.5878C77.8702 20.8196 73.3509 22.6351 72.2694 23.0986C71.9604 23.2144 71.8445 23.0599 71.8445 22.9054C71.8445 22.0943 71.8445 19.8153 71.8445 19.4677C71.8445 19.0814 71.6127 18.811 71.2264 18.811C70.8015 18.811 70.1063 18.811 69.4496 18.811C69.0634 18.811 68.793 18.502 68.793 18.1157C68.793 17.9612 68.8316 17.8454 68.9088 17.7295C71.2264 15.4119 76.4797 10.0814 77.9088 8.61359C78.3337 8.1887 78.8745 8.1887 79.3767 8.61359C81.1921 10.4677 86.0591 15.5278 87.5655 17.0728C87.7586 17.266 87.8745 17.4205 88.029 17.5363L88.0676 17.575C88.0676 17.575 88.0676 17.575 88.1063 17.6136C88.2222 17.7681 88.2994 17.9226 88.2994 18.1157C88.1835 18.502 87.9131 18.7724 87.4496 18.7724Z" fill="white"/>
<path fill-rule="evenodd" clip-rule="evenodd" d="M80.6128 13.9443H79.2608C79.0291 13.9443 78.8359 14.1375 78.8359 14.3692V15.7212C78.8359 15.9529 79.0291 16.1461 79.2608 16.1461H80.6128C80.8445 16.1461 81.0377 15.9529 81.0377 15.7212V14.3692C81.0377 14.1375 80.8445 13.9443 80.6128 13.9443Z" fill="#C90C0F"/>
<path fill-rule="evenodd" clip-rule="evenodd" d="M80.6128 16.8408H79.2608C79.0291 16.8408 78.8359 17.034 78.8359 17.2657V18.6176C78.8359 18.8494 79.0291 19.0425 79.2608 19.0425H80.6128C80.8445 19.0425 81.0377 18.8494 81.0377 18.6176V17.2657C81.0377 17.034 80.8445 16.8408 80.6128 16.8408Z" fill="#C90C0F"/>
<path fill-rule="evenodd" clip-rule="evenodd" d="M77.6792 13.9443H76.3272C76.0955 13.9443 75.9023 14.1375 75.9023 14.3692V15.7212C75.9023 15.9529 76.0955 16.1461 76.3272 16.1461H77.6792C77.9109 16.1461 78.1041 15.9529 78.1041 15.7212V14.3692C78.1427 14.1375 77.9109 13.9443 77.6792 13.9443Z" fill="#C90C0F"/>
<path fill-rule="evenodd" clip-rule="evenodd" d="M77.6792 16.8408H76.3272C76.0955 16.8408 75.9023 17.034 75.9023 17.2657V18.6176C75.9023 18.8494 76.0955 19.0425 76.3272 19.0425H77.6792C77.9109 19.0425 78.1041 18.8494 78.1041 18.6176V17.2657C78.1427 17.034 77.9109 16.8408 77.6792 16.8408Z" fill="#C90C0F"/>
<path d="M48.3238 15.9142V17.5365C48.3238 17.5751 48.3238 17.6138 48.3238 17.6524C48.3238 17.691 48.3238 17.691 48.3238 17.7296V17.7683C48.401 18.0773 48.6328 18.2704 48.9804 18.2704H50.7186C51.0276 18.2704 51.2594 18.0773 51.3366 17.8069C51.3366 17.7296 51.3753 17.6138 51.3753 17.5365V15.9142C51.3753 12.4764 48.5942 9.69531 45.1564 9.69531C41.7186 9.69531 38.9375 12.4764 38.9375 15.9142V25.8799C38.9375 25.9185 38.9375 25.9571 38.9375 26.0344C39.0148 26.3434 39.2465 26.5365 39.5942 26.5365H41.3323C41.68 26.5365 41.989 26.2275 41.989 25.8799V15.9142C41.989 14.176 43.4182 12.7468 45.1564 12.7468C46.8946 12.7468 48.3238 14.176 48.3238 15.9142Z" fill="#0055A3"/>
<path d="M29.2417 15.9142V25.8799V25.9185C29.2804 26.2661 29.5507 26.5365 29.8984 26.5365H31.6366C31.9842 26.5365 32.2932 26.2275 32.2932 25.8799V15.9142C32.2932 12.4764 29.5121 9.69531 26.0744 9.69531C22.6366 9.69531 19.8555 12.4764 19.8555 15.9142V25.8799C19.8555 26.2275 20.1645 26.5365 20.5121 26.5365H22.2503C22.598 26.5365 22.8683 26.2661 22.907 25.9571C22.907 25.9185 22.907 25.9185 22.907 25.8799V15.9142C22.907 14.176 24.3362 12.7468 26.0744 12.7468C27.8126 12.7468 29.2417 14.176 29.2417 15.9142Z" fill="#0055A3"/>
<path d="M144.232 22.4809V20.7427C144.232 20.395 143.923 20.086 143.575 20.086C143.575 20.086 143.575 20.086 143.575 20.0474C143.537 20.0474 143.459 20.0474 143.421 20.0474H142.223V11.3178C142.223 11.2792 142.223 11.2792 142.223 11.2405C142.185 10.8929 141.914 10.6611 141.567 10.6611H139.829C139.481 10.6611 139.172 10.9701 139.172 11.3178V25.7641C139.172 25.8028 139.172 25.8414 139.172 25.88C139.211 26.189 139.481 26.4208 139.829 26.4208H141.567C141.914 26.4208 142.223 26.1118 142.223 25.7641V23.1375H143.421C143.614 23.1375 143.807 23.0989 143.962 23.0216C144.155 22.9058 144.232 22.7126 144.232 22.4809Z" fill="#0055A3"/>
<path d="M133.144 16.0304V25.7643C133.144 25.8029 133.144 25.8416 133.144 25.8802C133.183 26.1892 133.453 26.421 133.801 26.421H135.539C135.887 26.421 136.196 26.1119 136.196 25.7643V16.0304C136.196 12.5926 133.414 9.81152 129.977 9.81152C126.539 9.81152 123.758 12.5926 123.758 16.0304V25.7643C123.758 26.1119 124.067 26.421 124.414 26.421H126.153C126.5 26.421 126.809 26.1119 126.809 25.7643V16.0304C126.809 14.2922 128.239 12.863 129.977 12.863C131.754 12.863 133.144 14.2536 133.144 16.0304Z" fill="#0055A3"/>
<path d="M111.398 16.841C110.085 16.6865 109.119 16.5706 108.656 16.0299C108.192 15.4891 108.27 14.7552 108.308 14.6007C108.308 14.562 108.656 12.5535 111.476 12.5535C112.403 12.5535 113.175 12.9011 113.716 13.3646C114.064 13.7123 114.334 14.0213 114.797 14.0213H116.69C117.038 14.0213 117.308 13.7509 117.347 13.4032C117.347 13.1715 117.27 12.9397 117.154 12.7466C116.227 11.1629 114.218 9.50195 111.476 9.50195C107.729 9.50195 105.643 11.8968 105.295 14.0985C105.218 14.6393 105.025 16.4547 106.338 17.9998C107.42 19.2745 109.119 19.6994 111.398 19.8925C113.716 20.1243 114.836 20.665 114.836 22.2487C114.836 23.5234 113.523 24.3346 111.398 24.3346C110.124 24.3346 109.274 23.8711 108.733 23.3689C108.347 23.0213 108.231 22.8281 107.806 22.8281H105.913C105.566 22.8281 105.257 23.1371 105.257 23.4848C105.295 23.6393 105.334 23.7938 105.411 23.9097C105.952 24.9526 107.652 27.3861 111.437 27.3861C115.918 27.3861 117.926 24.7981 117.926 22.2487C117.926 20.8195 117.385 19.5062 116.458 18.5406C115.222 17.4204 113.6 17.1114 111.398 16.841Z" fill="#0055A3"/>
<path d="M14.9485 19.3133C14.9485 19.2747 14.9485 19.2747 14.9485 19.3133C14.8712 19.0043 14.6009 18.7726 14.2918 18.7726H12.5536C12.206 18.7726 11.897 19.0816 11.897 19.4292V19.4678V21.0902C11.897 22.8284 10.4678 24.2575 8.72962 24.2575C6.99142 24.2575 5.56223 22.8284 5.56223 21.0902V10.5451C5.56223 10.1202 5.33047 9.69531 4.75107 9.69531H0.733906C0.695279 9.69531 0.695279 9.69531 0.656652 9.69531C0.309013 9.69531 0 10.0043 0 10.352V12.0902C0 12.3992 0.193133 12.6309 0.502146 12.7082C0.579399 12.7468 0.656652 12.7468 0.733906 12.7468C0.733906 12.7468 1.42918 12.7468 1.81545 12.7468C2.27897 12.7468 2.51073 12.9399 2.51073 13.558C2.51073 14.0601 2.51073 21.0515 2.51073 21.0515C2.51073 24.4893 5.29185 27.2704 8.72962 27.2704C12.1674 27.2704 14.9485 24.4893 14.9485 21.0515V19.4292C14.9485 19.3906 14.9485 19.352 14.9485 19.3133Z" fill="#0055A3"/>
<path d="M164.241 19.3133C164.241 19.2747 164.241 19.2747 164.241 19.3133C164.164 19.0043 163.893 18.7726 163.584 18.7726H161.846C161.499 18.7726 161.19 19.0816 161.19 19.4292V19.4678V21.0902C161.19 22.8284 159.76 24.2575 158.022 24.2575C156.284 24.2575 154.855 22.8284 154.855 21.0902V10.5451C154.855 10.1202 154.623 9.69531 154.044 9.69531H149.988C149.949 9.69531 149.949 9.69531 149.911 9.69531C149.563 9.69531 149.254 10.0043 149.254 10.352V12.0902C149.254 12.3992 149.447 12.6309 149.756 12.7082C149.833 12.7082 149.911 12.7468 149.988 12.7468C149.988 12.7468 150.683 12.7468 151.069 12.7468C151.533 12.7468 151.765 12.9399 151.765 13.558C151.765 14.0601 151.765 21.0515 151.765 21.0515C151.765 24.4893 154.546 27.2704 157.984 27.2704C161.421 27.2704 164.202 24.4893 164.202 21.0515V19.4292C164.241 19.3906 164.241 19.352 164.241 19.3133Z" fill="#0055A3"/>
</svg>
