<svg xmlns="http://www.w3.org/2000/svg" xml:space="preserve" viewBox="0 0 512 512" id="PersonalCenter">
  <path d="M478.755 172.632v166.737c0 28.003-14.949 53.85-39.185 67.851l-61.644 35.584-82.753 47.785a78.32 78.32 0 0 1-78.346 0l-82.753-47.785-61.643-35.584c-24.236-14.001-39.185-39.848-39.185-67.851V172.632c0-28.003 14.949-53.85 39.185-67.851l144.397-83.369a78.32 78.32 0 0 1 78.346 0l144.397 83.369c24.235 14.002 39.184 39.848 39.184 67.851" fill="#f0f7fe" class="colorf1f0fe svgShape"></path>
  <path d="M343.974 197.489c0 48.588-39.396 87.962-87.962 87.962-48.588 0-87.985-39.374-87.985-87.962 0-48.566 39.396-87.962 87.985-87.962 48.566 0 87.962 39.396 87.962 87.962" fill="#b3d6f8" class="colorf8e8b3 svgShape"></path>
  <path d="M377.926 380.422v62.382l-82.753 47.785a78.32 78.32 0 0 1-78.346 0l-82.753-47.785v-62.382c0-36.555 29.637-66.193 66.192-66.193h111.466c36.557 0 66.194 29.638 66.194 66.193" fill="#64aff9" class="colorf9d964 svgShape"></path>
  <path d="m69.98 411.466 144.397 83.366c25.668 14.829 57.571 14.836 83.249.002l144.394-83.371c25.682-14.837 41.636-42.46 41.636-72.093V172.633c0-29.633-15.955-57.258-41.636-72.098L297.626 17.169c-25.675-14.832-57.574-14.835-83.249-.002l-144.4 83.37C44.298 115.374 28.343 143 28.343 172.633V339.37c0 29.633 15.955 57.256 41.637 72.096m149.299 74.876-80.303-46.368v-59.551c0-33.796 27.496-61.291 61.291-61.291h111.465c33.796 0 61.291 27.496 61.291 61.291v59.551l-80.3 46.371c-22.648 13.082-50.791 13.085-73.444-.003M38.147 172.633c0-26.144 14.076-50.516 36.735-63.606l144.397-83.371c22.654-13.084 50.793-13.085 73.445.002l144.394 83.366c22.659 13.092 36.735 37.465 36.735 63.608V339.37c0 26.141-14.076 50.514-36.735 63.604l-54.291 31.346v-53.897c0-39.202-31.893-71.095-71.095-71.095H200.267c-39.202 0-71.095 31.893-71.095 71.095v53.897l-54.288-31.343c-22.661-13.092-36.737-37.465-36.737-63.606z" fill="#1976d2" class="color000000 svgShape"></path>
  <path d="M256.011 290.352c51.205 0 92.866-41.658 92.866-92.863s-41.66-92.863-92.866-92.863c-51.217 0-92.885 41.658-92.885 92.863s41.667 92.863 92.885 92.863m0-175.923c45.801 0 83.062 37.261 83.062 83.06s-37.261 83.06-83.062 83.06c-45.811 0-83.081-37.261-83.081-83.06s37.27-83.06 83.081-83.06" fill="#1976d2" class="color000000 svgShape"></path>
</svg>
